<svg id="visual" viewBox="0 0 960 150" width="960" height="150" xmlns="http://www.w3.org/2000/svg" xmlns:xlink="http://www.w3.org/1999/xlink" version="1.1"><rect x="0" y="0" width="960" height="150" fill="#003554"></rect><path d="M0 38L12.3 43.7C24.7 49.3 49.3 60.7 74 64.2C98.7 67.7 123.3 63.3 148 59.2C172.7 55 197.3 51 221.8 50.7C246.3 50.3 270.7 53.7 295.2 48.8C319.7 44 344.3 31 369 26.8C393.7 22.7 418.3 27.3 443 27.5C467.7 27.7 492.3 23.3 517 24.8C541.7 26.3 566.3 33.7 591 42.3C615.7 51 640.3 61 664.8 60.5C689.3 60 713.7 49 738.2 40.3C762.7 31.7 787.3 25.3 812 29C836.7 32.7 861.3 46.3 886 52.3C910.7 58.3 935.3 56.7 947.7 55.8L960 55L960 151L947.7 151C935.3 151 910.7 151 886 151C861.3 151 836.7 151 812 151C787.3 151 762.7 151 738.2 151C713.7 151 689.3 151 664.8 151C640.3 151 615.7 151 591 151C566.3 151 541.7 151 517 151C492.3 151 467.7 151 443 151C418.3 151 393.7 151 369 151C344.3 151 319.7 151 295.2 151C270.7 151 246.3 151 221.8 151C197.3 151 172.7 151 148 151C123.3 151 98.7 151 74 151C49.3 151 24.7 151 12.3 151L0 151Z" fill="#0582ca"></path><path d="M0 76L12.3 73.5C24.7 71 49.3 66 74 60.2C98.7 54.3 123.3 47.7 148 45.8C172.7 44 197.3 47 221.8 50.7C246.3 54.3 270.7 58.7 295.2 59.2C319.7 59.7 344.3 56.3 369 57C393.7 57.7 418.3 62.3 443 61.8C467.7 61.3 492.3 55.7 517 53.8C541.7 52 566.3 54 591 57.8C615.7 61.7 640.3 67.3 664.8 71.2C689.3 75 713.7 77 738.2 74.7C762.7 72.3 787.3 65.7 812 65.2C836.7 64.7 861.3 70.3 886 69.7C910.7 69 935.3 62 947.7 58.5L960 55L960 151L947.7 151C935.3 151 910.7 151 886 151C861.3 151 836.7 151 812 151C787.3 151 762.7 151 738.2 151C713.7 151 689.3 151 664.8 151C640.3 151 615.7 151 591 151C566.3 151 541.7 151 517 151C492.3 151 467.7 151 443 151C418.3 151 393.7 151 369 151C344.3 151 319.7 151 295.2 151C270.7 151 246.3 151 221.8 151C197.3 151 172.7 151 148 151C123.3 151 98.7 151 74 151C49.3 151 24.7 151 12.3 151L0 151Z" fill="#0276b8"></path><path d="M0 48L12.3 53.8C24.7 59.7 49.3 71.3 74 71.5C98.7 71.7 123.3 60.3 148 56.2C172.7 52 197.3 55 221.8 61C246.3 67 270.7 76 295.2 76.8C319.7 77.7 344.3 70.3 369 64.3C393.7 58.3 418.3 53.7 443 55.5C467.7 57.3 492.3 65.7 517 68C541.7 70.3 566.3 66.7 591 69.5C615.7 72.3 640.3 81.7 664.8 84C689.3 86.3 713.7 81.7 738.2 77.7C762.7 73.7 787.3 70.3 812 66.7C836.7 63 861.3 59 886 58C910.7 57 935.3 59 947.7 60L960 61L960 151L947.7 151C935.3 151 910.7 151 886 151C861.3 151 836.7 151 812 151C787.3 151 762.7 151 738.2 151C713.7 151 689.3 151 664.8 151C640.3 151 615.7 151 591 151C566.3 151 541.7 151 517 151C492.3 151 467.7 151 443 151C418.3 151 393.7 151 369 151C344.3 151 319.7 151 295.2 151C270.7 151 246.3 151 221.8 151C197.3 151 172.7 151 148 151C123.3 151 98.7 151 74 151C49.3 151 24.7 151 12.3 151L0 151Z" fill="#016ba7"></path><path d="M0 85L12.3 83.3C24.7 81.7 49.3 78.3 74 76.8C98.7 75.3 123.3 75.7 148 77.7C172.7 79.7 197.3 83.3 221.8 86.2C246.3 89 270.7 91 295.2 88.7C319.7 86.3 344.3 79.7 369 79.5C393.7 79.3 418.3 85.7 443 87C467.7 88.3 492.3 84.7 517 86C541.7 87.3 566.3 93.7 591 95.3C615.7 97 640.3 94 664.8 89.7C689.3 85.3 713.7 79.7 738.2 76.5C762.7 73.3 787.3 72.7 812 75.7C836.7 78.7 861.3 85.3 886 84C910.7 82.7 935.3 73.3 947.7 68.7L960 64L960 151L947.7 151C935.3 151 910.7 151 886 151C861.3 151 836.7 151 812 151C787.3 151 762.7 151 738.2 151C713.7 151 689.3 151 664.8 151C640.3 151 615.7 151 591 151C566.3 151 541.7 151 517 151C492.3 151 467.7 151 443 151C418.3 151 393.7 151 369 151C344.3 151 319.7 151 295.2 151C270.7 151 246.3 151 221.8 151C197.3 151 172.7 151 148 151C123.3 151 98.7 151 74 151C49.3 151 24.7 151 12.3 151L0 151Z" fill="#006095"></path><path d="M0 82L12.3 82.2C24.7 82.3 49.3 82.7 74 83.5C98.7 84.3 123.3 85.7 148 89.2C172.7 92.7 197.3 98.3 221.8 97.5C246.3 96.7 270.7 89.3 295.2 85.2C319.7 81 344.3 80 369 79.3C393.7 78.7 418.3 78.3 443 82.8C467.7 87.3 492.3 96.7 517 99.3C541.7 102 566.3 98 591 93.5C615.7 89 640.3 84 664.8 83.5C689.3 83 713.7 87 738.2 88C762.7 89 787.3 87 812 86.8C836.7 86.7 861.3 88.3 886 92.5C910.7 96.7 935.3 103.3 947.7 106.7L960 110L960 151L947.7 151C935.3 151 910.7 151 886 151C861.3 151 836.7 151 812 151C787.3 151 762.7 151 738.2 151C713.7 151 689.3 151 664.8 151C640.3 151 615.7 151 591 151C566.3 151 541.7 151 517 151C492.3 151 467.7 151 443 151C418.3 151 393.7 151 369 151C344.3 151 319.7 151 295.2 151C270.7 151 246.3 151 221.8 151C197.3 151 172.7 151 148 151C123.3 151 98.7 151 74 151C49.3 151 24.7 151 12.3 151L0 151Z" fill="#005585"></path><path d="M0 98L12.3 97.3C24.7 96.7 49.3 95.3 74 98.8C98.7 102.3 123.3 110.7 148 110.8C172.7 111 197.3 103 221.8 101.5C246.3 100 270.7 105 295.2 107.7C319.7 110.3 344.3 110.7 369 112.2C393.7 113.7 418.3 116.3 443 117.7C467.7 119 492.3 119 517 116.8C541.7 114.7 566.3 110.3 591 108.2C615.7 106 640.3 106 664.8 106.2C689.3 106.3 713.7 106.7 738.2 108.3C762.7 110 787.3 113 812 113C836.7 113 861.3 110 886 109.2C910.7 108.3 935.3 109.7 947.7 110.3L960 111L960 151L947.7 151C935.3 151 910.7 151 886 151C861.3 151 836.7 151 812 151C787.3 151 762.7 151 738.2 151C713.7 151 689.3 151 664.8 151C640.3 151 615.7 151 591 151C566.3 151 541.7 151 517 151C492.3 151 467.7 151 443 151C418.3 151 393.7 151 369 151C344.3 151 319.7 151 295.2 151C270.7 151 246.3 151 221.8 151C197.3 151 172.7 151 148 151C123.3 151 98.7 151 74 151C49.3 151 24.7 151 12.3 151L0 151Z" fill="#004a74"></path><path d="M0 112L12.3 113.2C24.7 114.3 49.3 116.7 74 119.8C98.7 123 123.3 127 148 127C172.7 127 197.3 123 221.8 119.7C246.3 116.3 270.7 113.7 295.2 113.2C319.7 112.7 344.3 114.3 369 116.8C393.7 119.3 418.3 122.7 443 123.3C467.7 124 492.3 122 517 120.5C541.7 119 566.3 118 591 116C615.7 114 640.3 111 664.8 109.7C689.3 108.3 713.7 108.7 738.2 110C762.7 111.3 787.3 113.7 812 114.3C836.7 115 861.3 114 886 113.5C910.7 113 935.3 113 947.7 113L960 113L960 151L947.7 151C935.3 151 910.7 151 886 151C861.3 151 836.7 151 812 151C787.3 151 762.7 151 738.2 151C713.7 151 689.3 151 664.8 151C640.3 151 615.7 151 591 151C566.3 151 541.7 151 517 151C492.3 151 467.7 151 443 151C418.3 151 393.7 151 369 151C344.3 151 319.7 151 295.2 151C270.7 151 246.3 151 221.8 151C197.3 151 172.7 151 148 151C123.3 151 98.7 151 74 151C49.3 151 24.7 151 12.3 151L0 151Z" fill="#003f64"></path><path d="M0 140L12.3 138.5C24.7 137 49.3 134 74 133.7C98.7 133.3 123.3 135.7 148 137.2C172.7 138.7 197.3 139.3 221.8 139.7C246.3 140 270.7 140 295.2 139.2C319.7 138.3 344.3 136.7 369 134.8C393.7 133 418.3 131 443 129C467.7 127 492.3 125 517 125.8C541.7 126.7 566.3 130.3 591 132.7C615.7 135 640.3 136 664.8 135C689.3 134 713.7 131 738.2 130C762.7 129 787.3 130 812 131.8C836.7 133.7 861.3 136.3 886 135.2C910.7 134 935.3 129 947.7 126.5L960 124L960 151L947.7 151C935.3 151 910.7 151 886 151C861.3 151 836.7 151 812 151C787.3 151 762.7 151 738.2 151C713.7 151 689.3 151 664.8 151C640.3 151 615.7 151 591 151C566.3 151 541.7 151 517 151C492.3 151 467.7 151 443 151C418.3 151 393.7 151 369 151C344.3 151 319.7 151 295.2 151C270.7 151 246.3 151 221.8 151C197.3 151 172.7 151 148 151C123.3 151 98.7 151 74 151C49.3 151 24.7 151 12.3 151L0 151Z" fill="#003554"></path></svg>